<?xml version="1.0" standalone="no"?>
<!DOCTYPE svg PUBLIC "-//W3C//DTD SVG 20010904//EN"
 "http://www.w3.org/TR/2001/REC-SVG-20010904/DTD/svg10.dtd">
<svg version="1.0" xmlns="http://www.w3.org/2000/svg"
 width="512.000000pt" height="512.000000pt" viewBox="0 0 512.000000 512.000000"
 preserveAspectRatio="xMidYMid meet">
<metadata>
Created by potrace 1.11, written by Peter Selinger 2001-2013
</metadata>
<g transform="translate(0.000000,512.000000) scale(0.100000,-0.100000)"
fill="#000000" stroke="none">
<path d="M2328 4341 l-33 -29 -3 -159 -3 -158 -69 0 c-38 1 -73 4 -77 8 -4 5
-8 34 -9 66 -4 134 -90 234 -229 267 -54 13 -410 13 -472 0 -155 -33 -231
-117 -241 -263 -2 -40 -7 -73 -11 -74 -3 0 -31 -2 -62 -3 l-56 -2 -6 72 c-15
202 -137 286 -405 280 -124 -3 -184 -16 -244 -53 -92 -57 -124 -126 -128 -283
0 -10 -12 -16 -39 -17 -57 -2 -124 -35 -169 -83 -77 -82 -72 20 -72 -1504 0
-1522 -5 -1415 72 -1496 23 -23 62 -52 87 -63 46 -21 53 -21 1176 -23 1123 -1
1130 -1 1177 -22 92 -41 261 -84 383 -97 61 -7 250 -8 295 -1 14 2 50 6 80 10
83 11 206 44 295 79 l80 31 625 1 c612 1 626 1 671 22 25 11 64 40 87 63 77
81 72 -47 72 1680 0 1748 6 1615 -79 1700 -86 86 21 80 -1403 80 l-1258 0 -32
-29z"/>
</g>
</svg>
